<svg width="562" height="699" viewBox="0 0 562 699" fill="none" xmlns="http://www.w3.org/2000/svg">
<g style="mix-blend-mode:multiply">
<path d="M15.0893 406.108V385.244C15.0893 385.244 46.1242 398.705 46.4392 399.781C36.3568 370.437 23.7539 317.941 23.7539 317.941L30.843 302.596C30.843 302.596 61.8779 370.707 68.8096 385.244C73.0631 394.128 87.7141 410.146 100.947 428.049C101.42 419.568 101.735 412.838 101.735 408.665C101.735 379.86 115.598 302.596 117.331 284.828C119.064 267.06 132.927 182.528 131.194 169.202C129.461 155.876 101.735 108.495 101.735 108.495V83.0544C101.735 83.0544 145.058 126.263 155.455 143.492C157.976 147.665 159.866 160.049 161.442 176.471C186.963 155.472 200.983 126.128 202.401 108.495C203.977 87.631 217.84 63.9404 217.84 63.9404L229.97 72.6898C229.97 72.6898 212.799 140.396 202.244 154.799C194.84 164.895 174.675 191.412 163.332 206.219C166.01 257.369 166.325 320.499 166.325 320.499L217.21 284.963C217.21 284.963 283.848 246.331 298.499 233.14C303.225 228.832 308.582 216.314 313.623 201.507C283.848 183.874 261.32 116.033 261.32 116.033L275.184 108.629C275.184 108.629 285.581 142.685 287.629 148.204C289.677 153.722 302.91 179.701 317.876 187.778C326.068 160.453 332.37 131.378 332.37 131.378H346.391C346.391 131.378 323.705 234.486 311.575 246.062C306.376 251.042 283.06 271.098 258.17 293.443C262.896 289.27 367.028 296.943 377.425 284.963C387.823 272.983 418.07 241.889 436.817 225.602C455.564 209.314 462.496 203.526 462.496 203.526L471.16 215.237C471.16 215.237 465.174 215.372 453.516 233.14C441.701 250.908 384.515 298.289 374.117 305.692C365.453 311.884 263.683 318.076 229.34 319.96C207.758 340.286 189.956 358.457 188.538 364.919C185.072 381.206 166.483 447.701 166.483 447.701C166.483 447.701 231.546 685.011 247.142 756.082L58.4121 783.946C58.4121 783.946 79.2071 633.053 83.4606 606.67C85.8236 591.998 91.1799 541.386 95.4334 494.275C80.1523 467.488 62.193 435.048 53.3709 416.876L15.0893 406.108Z" fill="#391863"/>
<path opacity="0.36" d="M200.139 726.267L200.139 726.266C195.882 690.56 187.84 655.264 179.807 620.137C167.834 567.508 155.7 514.723 139.939 462.743L139.938 462.74L139.693 461.947C135.354 447.919 131.013 433.882 132.086 419.476C133.022 407.08 138.017 395.187 144.301 384.047L144.301 384.046C157.961 359.763 177.908 338.02 202.418 320.837L202.419 320.836C214.049 312.645 227.033 305.439 241.705 303.438C248.187 302.571 254.719 302.703 261.301 303.139C264.091 303.324 266.907 303.566 269.732 303.808C273.533 304.134 277.351 304.461 281.14 304.654L281.141 304.654C305.323 305.869 329.335 301.412 352.798 296.972C363.814 294.955 375.078 292.791 384.929 287.903L384.931 287.902C394.957 282.871 402.541 275.501 409.108 267.304C413.37 261.984 417.229 256.281 421.045 250.64C423.092 247.614 425.127 244.606 427.205 241.685C439.083 224.993 456.749 208.344 479.413 208.541C489.083 236.25 482.861 265.96 476.581 294.53C470.118 323.622 463.208 353.503 443.457 377.744L443.456 377.746C433.582 389.973 420.702 400.196 407.855 410.392C406.622 411.37 405.39 412.348 404.161 413.328C379.265 433.119 354.956 454.02 336.321 478.444C317.683 502.871 305.007 531.397 305.482 560.644C305.641 570.862 307.343 580.9 309.473 590.874C310.304 594.769 311.199 598.645 312.093 602.519C313.494 608.59 314.893 614.654 316.047 620.774C319.663 640.791 320.261 662.015 309.504 679.866C304.586 688.002 297.629 694.989 290.268 701.816C288.741 703.232 287.197 704.642 285.65 706.053C279.758 711.43 273.835 716.836 268.759 722.726C268.759 722.726 268.759 722.726 268.759 722.726L269.197 723.104L200.139 726.267ZM200.139 726.267C200.459 728.995 200.931 745.728 201.266 761.74C201.433 769.759 201.566 777.614 201.628 783.475C201.658 786.404 201.671 788.838 201.662 790.544C201.657 791.396 201.647 792.073 201.63 792.54C201.63 792.541 201.63 792.542 201.63 792.543M200.139 726.267L201.63 792.543M201.63 792.543C222.941 789.07 243.788 782.787 263.001 773.943C256.158 766.934 254.348 757.963 255.806 748.923L201.63 792.543Z" fill="white" stroke="white" stroke-width="1.15655"/>
<path opacity="0.51" d="M199.79 707.817C201.68 696.645 195.379 684.8 184.351 678.608C173.324 672.416 158.042 672.416 146.857 678.338C141.501 651.148 114.562 627.996 82.582 623.285C72.8147 621.804 62.1022 622.208 53.9102 626.919C45.7183 631.63 41.4648 641.86 46.821 648.994C15.9437 643.072 -18.2419 662.186 -24.3858 688.703C-29.427 710.105 -17.7693 732.046 -2.3306 749.545C51.7047 811.463 156.152 835.692 241.222 809.175C275.25 798.541 326.765 765.294 301.559 730.162C282.812 703.914 229.722 688.703 199.79 707.817Z" fill="#391863"/>
<path opacity="0.36" d="M160.759 189.239L160.759 189.242C161.076 201.023 159.016 212.79 156.811 224.496C153.661 241.587 150.472 258.711 147.282 275.835L147.28 275.848L147.279 275.851C144.108 292.877 140.938 309.902 137.806 326.893C139.474 328.433 141.854 329.18 144.402 329.242C147.059 329.307 149.831 328.624 152.022 327.397L152.029 327.393C156.361 325.049 159.063 321.188 161.76 317.335C161.915 317.114 162.07 316.893 162.224 316.672C162.226 316.67 162.227 316.668 162.228 316.666L193.885 269.431C200.349 259.732 206.778 250.084 211.322 239.64C216.645 227.267 218.922 214.243 220.554 201.016C220.992 197.468 221.384 193.903 221.776 190.331C222.844 180.611 223.917 170.847 225.938 161.275L225.939 161.271C228.045 151.621 231.105 142.121 234.152 132.664C234.877 130.414 235.601 128.167 236.311 125.92C240.012 114.214 243.343 102.519 244.518 90.5357C246.867 66.5896 237.777 39.4263 213.031 28.1229C198.989 21.7239 182.255 21.3099 166.196 22.117L166.192 22.1172C150.274 22.7905 133.29 24.9482 121.955 34.3668C112.826 42.0352 108.294 54.6424 107.708 67.6175C107.122 80.5909 110.488 93.8094 117.006 102.63C119.244 105.607 121.499 108.553 123.742 111.485C142.139 135.525 159.769 158.564 160.759 189.239Z" fill="white" stroke="white" stroke-width="1.15655"/>
</g>
<g filter="url(#filter0_d_1_10607)">
<ellipse cx="8.61006" cy="8.13709" rx="8.61006" ry="8.13709" transform="matrix(-1 0 0 1 471.179 202.819)" fill="#FFE68D"/>
</g>
<g filter="url(#filter1_d_1_10607)">
<ellipse cx="8.61006" cy="8.13709" rx="8.61006" ry="8.13709" transform="matrix(-1 0 0 1 277.226 100.892)" fill="#FFE68D"/>
</g>
<g filter="url(#filter2_d_1_10607)">
<ellipse cx="8.61006" cy="8.13709" rx="8.61006" ry="8.13709" transform="matrix(-1 0 0 1 112.275 89.7559)" fill="#FFE68D"/>
</g>
<g filter="url(#filter3_d_1_10607)">
<circle cx="402.511" cy="565.502" r="1.57812" fill="#FFE68D"/>
</g>
<g filter="url(#filter4_d_1_10607)">
<circle cx="251.871" cy="564.067" r="1.57812" fill="#FFE68D"/>
</g>
<path opacity="0.75" d="M429.694 543.223C429.827 543.29 429.894 543.357 430.027 543.357H430.426C430.625 543.424 430.825 543.491 431.091 543.625H431.49C431.623 543.692 431.689 543.759 431.822 543.759H432.221C432.553 543.893 432.886 543.96 433.218 544.093H433.617C434.216 544.361 434.947 544.428 435.545 544.629H435.944C437.075 545.031 438.271 545.165 439.402 545.634H439.668C439.468 545.299 439.136 545.031 438.936 544.629H438.87C438.737 544.428 438.537 544.294 438.404 544.093H438.338C438.271 543.96 438.138 543.893 438.072 543.759H438.005C438.005 543.692 437.939 543.625 437.939 543.625H437.872C437.806 543.558 437.739 543.491 437.739 543.357H437.673C437.673 543.29 437.607 543.223 437.607 543.223H437.54V543.156H437.407C437.407 543.089 437.34 543.022 437.34 543.022H437.274V542.955H437.208V542.888H437.141V542.821H437.075V542.754H437.008V542.687H436.875V542.62H436.809V542.553H436.742V542.486H436.676V542.419H436.543V542.352H436.476V542.285H436.41V542.218H436.343V542.151H436.21V542.084H436.144V542.017H436.077V541.95H435.944V541.883H435.878C435.745 541.615 435.346 541.481 435.146 541.347C434.881 541.147 434.614 541.013 434.348 540.812C433.817 540.477 433.351 540.142 432.753 539.807C431.024 538.802 429.096 537.798 427.168 537.128C426.237 536.793 425.306 536.458 424.375 536.123C423.444 535.855 422.447 535.654 421.583 535.32H421.184C421.184 535.253 421.25 535.186 421.25 535.186H421.782V535.119H422.314V535.052H422.979V534.985H423.71V534.918H424.442V534.851H425.239V534.784H426.104V534.717H427.101V534.65H428.165V534.583H429.362V534.516H430.825V534.449H432.42V534.382H434.747C434.814 534.181 433.484 533.712 433.218 533.578C432.686 533.31 432.088 533.109 431.556 532.841C429.628 531.971 427.7 531.301 425.705 530.631C424.707 530.296 423.71 530.028 422.713 529.694C421.715 529.426 420.718 529.225 419.721 528.89H419.322C419.189 528.823 419.122 528.756 418.99 528.756H418.59V528.689H418.192V528.622H417.793V528.555H417.394V528.488H416.928V528.421H416.529V528.354H416.064V528.287H415.598V528.22H415.133V528.153H414.601V528.086H414.069V528.019H413.404V527.952H412.673V527.885H411.942V527.818H410.944V527.751H409.681V527.684H404.428V527.751H402.965V527.818H402.168V527.885H401.436V527.952H400.771V528.019H400.24V528.086H399.708V528.153H399.242V528.22H398.843V528.287H398.378V528.354H397.979V528.421H397.646V528.488H397.247V528.555H396.915V528.622H396.516V528.689H396.184V528.756H395.851C395.718 528.823 395.652 528.89 395.519 528.89H395.253C394.388 529.225 393.458 529.426 392.593 529.761C389.335 530.832 386.077 532.44 383.285 534.382H383.218V534.449H383.085V534.516H383.019V534.583H382.886V534.65H382.819V534.717H382.686V534.784H382.62V534.851H382.487V534.918H382.42V534.985H382.354V535.052H382.221V535.119H382.154V535.186H382.021C382.021 535.253 381.955 535.32 381.955 535.32H381.888C381.223 535.788 380.625 536.324 380.027 536.793C379.428 537.262 378.83 537.798 378.231 538.334C377.633 538.936 377.035 539.472 376.436 540.075C376.17 540.343 375.904 540.678 375.638 540.946C375.372 541.214 375.04 541.481 374.907 541.816H374.84V541.883H374.774C374.774 542.084 374.442 542.352 374.375 542.486C374.176 542.754 373.976 542.888 373.843 543.156C373.511 543.558 373.178 543.96 372.912 544.428C372.646 544.897 372.247 545.232 371.982 545.701C371.849 545.902 371.716 546.17 371.583 546.371C371.516 546.505 371.25 546.773 371.25 546.973H371.117C370.718 546.639 370.186 546.505 369.721 546.237C369.255 546.036 368.79 545.835 368.325 545.634C366.729 544.964 365.067 544.361 363.404 543.759C362.606 543.491 361.742 543.223 360.944 543.022C360.811 542.955 360.479 542.955 360.346 542.888C360.213 542.754 360.412 542.419 360.479 542.285C360.678 541.883 360.811 541.481 361.011 541.08C361.011 540.812 361.277 540.477 361.41 540.209C361.543 539.941 361.609 539.673 361.742 539.405C362.008 538.802 362.341 538.267 362.606 537.731C362.872 537.195 363.138 536.592 363.471 536.056C363.604 535.788 363.803 535.521 363.936 535.186C364.069 534.918 364.269 534.65 364.402 534.382C364.867 533.377 365.598 532.44 366.064 531.368C366.197 531.1 366.463 530.832 366.596 530.631C366.729 530.363 366.862 530.162 367.061 529.962C367.394 529.493 367.726 528.957 368.059 528.421C369.322 526.345 370.851 524.402 372.38 522.46C373.112 521.456 373.976 520.451 374.774 519.513C375.572 518.509 376.503 517.437 377.5 516.566C377.766 516.365 378.032 516.03 378.298 515.83C378.497 515.629 378.763 515.428 378.963 515.294C379.428 514.892 379.894 514.557 380.426 514.289C380.891 514.021 381.356 513.753 381.888 513.552C382.154 513.418 383.351 513.217 382.952 512.749H381.489V512.682H379.561V512.615H379.029C379.229 512.213 379.428 511.878 379.628 511.543C379.761 511.342 379.894 511.208 379.894 511.007C379.894 510.806 379.761 510.672 379.827 510.471H379.761V510.404H379.694V510.338H379.628V510.271H379.495V510.204H378.83V510.137H378.032V510.204H376.636V510.271H375.971V510.338H375.439V510.404H375.04V510.471H374.708C374.708 509.735 374.575 508.931 374.442 508.194C374.375 507.792 374.309 507.391 374.309 506.989C374.309 506.788 374.176 506.587 374.176 506.453C374.109 506.319 374.176 506.051 374.043 505.917C374.043 505.582 373.71 505.113 373.378 504.912H372.713C372.447 505.113 372.247 505.381 372.048 505.582C371.848 505.716 371.583 505.85 371.383 505.917H370.851C370.452 505.716 370.186 505.515 369.854 505.247C369.721 505.113 369.588 504.979 369.455 504.778C369.388 504.645 369.189 504.511 369.122 504.31C368.989 503.975 368.79 503.707 368.59 503.372C368.391 503.037 368.125 502.702 367.859 502.501H367.194C366.862 502.769 366.729 502.836 366.662 503.238C366.596 503.573 366.729 503.841 366.729 504.109C366.795 504.645 366.729 505.314 366.729 505.85C366.729 506.587 366.729 507.391 366.729 508.127C366.729 508.529 366.662 508.864 366.662 509.333C366.662 509.534 366.662 509.735 366.662 509.869C366.662 510.07 366.596 510.204 366.596 510.404C366.596 511.141 366.463 511.744 366.463 512.481H366.396V512.548V512.615C366.396 512.883 366.33 513.084 366.33 513.351C366.33 513.552 366.263 513.619 366.263 513.753C366.263 513.82 366.263 513.887 366.263 514.021C366.263 514.088 366.197 514.155 366.197 514.155C366.13 514.423 366.13 514.624 366.13 514.892C366.13 515.16 365.997 515.428 365.997 515.629C365.931 515.897 365.864 516.164 365.864 516.432C365.864 516.566 365.798 516.7 365.798 516.834C365.798 516.968 365.731 517.102 365.731 517.169C365.665 517.437 365.665 517.705 365.598 517.906C365.532 518.174 365.532 518.442 365.466 518.71C365.399 518.977 365.333 519.178 365.333 519.446C365.333 519.647 365.133 519.915 365.067 520.116C365 520.585 364.801 521.054 364.734 521.523C364.468 522.46 364.202 523.398 363.87 524.336C363.537 525.273 363.138 526.211 362.806 527.149C362.673 527.617 362.407 528.086 362.274 528.555C362.141 529.024 361.875 529.493 361.676 529.962C361.476 530.43 361.21 530.899 361.011 531.368C360.878 531.636 360.678 531.837 360.545 532.105C360.412 532.306 360.279 532.574 360.146 532.775C359.814 533.243 359.481 533.712 359.083 534.181C358.684 534.65 358.351 535.186 357.886 535.588C357.021 536.458 356.09 537.463 355.226 538.401C354.761 538.869 354.295 539.271 353.83 539.74C353.564 540.008 353.364 540.142 353.098 540.41C352.899 540.611 352.567 540.745 352.5 540.946H352.035V540.879H351.503V540.812H350.838V540.745H350.106V540.678H349.375V540.611H348.511V540.544H347.513V540.477H346.317V540.41H344.521V540.343H311.077V540.41H308.817V540.477H307.553V540.544H306.489V540.611H305.691V540.678H304.894V540.745H304.229C304.096 540.477 303.763 540.276 303.497 540.075C303.231 539.807 302.965 539.606 302.699 539.338C302.168 538.802 301.702 538.401 301.17 537.865C300.638 537.329 300.239 536.793 299.707 536.324C299.176 535.788 298.71 535.32 298.311 534.717C297.58 533.779 296.915 532.908 296.317 531.904C295.785 531.033 295.253 530.095 294.92 529.158C294.787 528.689 294.521 528.22 294.388 527.751C294.255 527.282 293.989 526.814 293.856 526.345C293.524 525.407 293.192 524.469 292.859 523.532C292.726 523.063 292.593 522.594 292.46 522.125C292.327 521.656 292.194 521.188 292.061 520.719C291.795 519.848 291.662 518.843 291.33 517.973C291.263 517.772 291.197 517.437 291.197 517.236C291.13 516.968 291.064 516.767 291.064 516.566C290.997 516.097 290.931 515.629 290.798 515.16C290.731 514.959 290.731 514.691 290.665 514.423C290.665 514.222 290.599 513.954 290.532 513.753C290.466 513.284 290.399 512.883 290.399 512.414V512.347V512.28C290.266 512.146 290.333 511.945 290.333 511.744C290.333 511.543 290.266 511.409 290.266 511.208C290.266 510.806 290.2 510.538 290.2 510.137C290.2 509.735 290.133 509.4 290.133 508.998C290.133 508.596 290.066 508.261 290.066 507.859C290.066 507.123 290.066 506.319 290.066 505.582C290.066 505.314 290.066 505.046 290.066 504.712C290.066 504.578 290.066 504.377 290.066 504.243C290.066 504.176 290.066 504.109 290.066 504.042C290.066 503.975 290.133 503.908 290.133 503.841C290.2 503.573 290.2 503.238 290.133 502.97C290.067 502.568 289.867 502.434 289.601 502.233H288.936C288.87 502.367 288.604 502.501 288.537 502.635C288.404 502.769 288.338 502.903 288.205 503.104C288.005 503.439 287.872 503.774 287.673 504.109C287.208 504.778 286.742 505.314 286.011 505.716H285.479C285.213 505.649 285.013 505.515 284.814 505.381C284.548 505.18 284.415 504.912 284.149 504.712H283.484C283.152 504.912 282.886 505.314 282.819 505.716C282.686 505.85 282.686 506.118 282.686 506.252C282.62 506.453 282.553 506.654 282.553 506.788C282.487 507.123 282.42 507.591 282.42 507.926C282.42 508.328 282.287 508.73 282.287 509.132C282.221 509.534 282.221 509.869 282.221 510.204H281.888V510.137H281.489V510.07H280.957V510.003H280.293V509.936H278.896V509.869H278.098V509.936H277.433V510.003H277.301V510.07H277.234V510.137H277.168V510.204H277.101C277.168 510.404 276.968 510.538 277.035 510.739C277.035 510.94 277.234 511.141 277.301 511.275C277.434 511.476 277.5 511.61 277.567 511.811C277.633 512.012 277.899 512.146 277.899 512.347H277.367V512.414H275.439V512.481H273.976C273.644 512.816 274.176 512.95 274.375 513.017C274.641 513.084 274.907 513.217 275.173 513.351C275.771 513.619 276.303 513.887 276.835 514.222C278.032 515.026 279.096 515.964 280.16 516.968C282.021 518.843 283.551 520.92 285.08 522.862C285.811 523.8 286.609 524.804 287.274 525.809C287.606 526.345 287.939 526.747 288.338 527.282C288.67 527.751 288.936 528.287 289.335 528.756C289.668 529.225 290 529.761 290.333 530.229C290.665 530.698 290.931 531.234 291.197 531.703C291.529 532.172 291.729 532.708 292.061 533.176C292.327 533.645 292.66 534.181 292.926 534.65C293.125 535.186 293.457 535.588 293.723 536.123C293.989 536.592 294.255 537.061 294.455 537.597C294.92 538.601 295.452 539.539 295.918 540.544V540.611H295.984V540.678V540.745H296.051C295.984 541.013 296.25 541.28 296.383 541.481C296.383 541.548 296.516 541.883 296.516 541.883C296.45 542.017 296.317 542.017 296.184 542.017C295.652 542.151 295.186 542.285 294.654 542.419C292.793 542.888 290.931 543.491 289.202 544.227C288.271 544.562 287.34 544.897 286.41 545.299C285.944 545.5 285.479 545.701 285.013 545.902C284.548 546.103 284.016 546.237 283.617 546.572H283.484C283.484 546.371 283.285 546.103 283.152 545.969C283.019 545.768 282.886 545.5 282.753 545.299C282.487 544.83 282.088 544.495 281.822 544.027C281.556 543.625 281.224 543.156 280.891 542.754C280.692 542.553 280.492 542.352 280.359 542.084C280.293 541.95 279.96 541.682 279.96 541.481H279.894V541.414H279.827C279.628 541.08 279.295 540.745 279.029 540.477C278.763 540.209 278.497 539.874 278.231 539.606C277.633 539.003 277.035 538.467 276.436 537.932C275.838 537.329 275.239 536.86 274.641 536.324C274.043 535.855 273.444 535.32 272.846 534.851H272.779C272.779 534.784 272.713 534.717 272.713 534.717H272.58V534.65H272.513V534.583H272.38V534.516H272.314V534.449H272.247V534.382H272.114V534.315H272.048V534.248H271.915V534.181H271.848V534.114H271.715V534.047H271.649V533.98H271.516V533.913H271.45C270.585 533.31 269.721 532.775 268.79 532.239C267.261 531.368 265.665 530.631 264.069 529.962C263.271 529.627 262.473 529.359 261.676 529.091C260.878 528.823 260.08 528.689 259.348 528.354H259.083C258.95 528.287 258.883 528.22 258.75 528.22H258.418C258.285 528.153 258.218 528.086 258.085 528.086H257.686V528.019H257.354V527.952H256.955V527.885H256.556V527.818H256.157V527.751H255.758V527.684H255.293V527.617H254.827V527.55H254.295V527.483H253.763V527.416H253.098V527.349H252.367V527.282H251.503V527.215H250.306V527.149H245.053V527.215H243.79V527.282H242.793V527.349H241.795V527.416H241.13V527.483H240.465V527.55H239.934V527.617H239.468V527.684H238.936V527.751H238.471V527.818H238.072V527.885H237.606V527.952H237.207V528.019H236.809V528.086H236.41C236.277 528.153 236.21 528.22 236.077 528.22H235.678C235.545 528.287 235.479 528.354 235.346 528.354H234.947C233.883 528.756 232.686 528.957 231.556 529.292C229.561 529.895 227.633 530.564 225.705 531.301C224.707 531.636 223.71 532.038 222.713 532.507C222.247 532.708 221.715 532.975 221.25 533.176C221.051 533.243 219.92 533.645 219.92 533.913H222.247V533.98H223.843V534.047H225.306V534.114H226.503V534.181H227.567V534.248H228.564V534.315H229.428V534.382H230.226V534.449H230.957V534.516H231.689V534.583H232.354V534.65H232.886V534.717H233.418C233.418 534.784 233.484 534.851 233.484 534.851H233.085C232.088 535.253 230.957 535.454 229.894 535.788C227.965 536.458 226.104 537.128 224.309 538.066C223.378 538.534 222.447 539.003 221.516 539.539C221.051 539.807 220.585 540.142 220.12 540.41C219.854 540.544 219.654 540.745 219.388 540.879C219.189 541.013 218.856 541.147 218.79 541.347H218.723V541.414H218.59V541.481H218.524V541.548H218.457V541.615H218.324V541.682H218.258V541.749H218.192V541.816H218.125V541.883H217.992V541.95H217.926V542.017H217.859V542.084H217.793V542.151H217.66V542.218H217.593V542.285H217.527V542.352H217.46V542.419H217.394V542.486H217.327C217.327 542.553 217.261 542.62 217.261 542.62H217.128V542.687H217.061C217.061 542.754 216.995 542.821 216.995 542.821H216.928C216.862 542.888 216.795 542.955 216.795 543.089H216.729C216.729 543.156 216.662 543.223 216.662 543.223H216.596C216.529 543.357 216.396 543.424 216.33 543.558H216.263C216.13 543.759 215.931 543.893 215.798 544.093H215.731C215.532 544.428 215.199 544.696 215 545.098H215.266C216.396 544.696 217.593 544.562 218.723 544.093H219.122C219.721 543.826 220.452 543.759 221.051 543.558H221.449C221.782 543.424 222.114 543.357 222.447 543.223H222.846C222.979 543.156 223.045 543.089 223.178 543.089H223.577C223.777 543.022 223.976 542.955 224.242 542.821H224.641C224.774 542.754 224.84 542.687 224.973 542.687H225.372V542.62H225.771C225.904 542.553 225.971 542.486 226.104 542.486H226.503V542.419H226.902V542.352H227.301V542.285H227.699V542.218H228.098V542.151H228.497V542.084H228.896V542.017H229.295V541.95H229.761V541.883H230.16V541.816H230.625V541.749H231.09V541.682H231.556V541.615H232.088V541.548H232.62V541.481H233.285V541.414H234.082V541.347H236.077V541.414H235.678C234.88 541.682 234.082 541.883 233.285 542.218C232.487 542.553 231.689 542.955 230.957 543.29C230.16 543.692 229.362 544.16 228.564 544.696C227.766 545.232 227.035 545.902 226.237 546.438H226.17C225.638 546.773 225.106 547.241 224.574 547.643C223.444 548.581 222.447 549.586 221.449 550.657C220.585 551.662 219.92 552.733 219.189 553.805C218.989 554.073 218.923 554.408 218.723 554.676C218.59 554.944 218.391 555.212 218.258 555.412C218.192 555.546 218.191 555.68 218.125 555.881C218.058 556.015 217.992 556.149 217.992 556.216C217.926 556.35 217.859 556.484 217.859 556.618C217.793 556.752 217.793 556.685 217.793 556.752C217.793 556.752 217.726 556.953 217.726 557.02C217.46 557.556 217.327 558.025 217.194 558.56C216.995 559.096 216.795 559.565 216.729 560.168C216.729 560.302 216.596 560.503 216.596 560.637C216.529 560.771 216.529 560.904 216.529 560.971C216.463 561.239 216.463 561.507 216.396 561.775C216.263 562.244 216.197 562.78 216.13 563.383C216.13 563.45 216.064 563.584 216.064 563.651C216.064 563.717 216.064 563.784 216.064 563.784C216.064 563.918 215.997 564.052 215.997 564.186C215.931 564.454 215.931 564.655 215.931 564.923C215.931 565.057 215.931 565.258 215.931 565.392C215.931 565.526 215.864 565.593 215.864 565.727C215.864 565.995 215.864 566.263 215.864 566.464C215.864 567.468 215.598 568.607 215.798 569.611C215.798 569.678 215.864 569.812 215.864 569.879C215.864 569.946 215.864 570.013 215.864 570.08C215.864 570.214 215.864 570.348 215.864 570.415C215.864 570.683 215.931 570.884 215.931 571.152C215.931 571.487 215.997 571.688 215.997 571.956C215.997 572.09 215.997 572.223 215.997 572.357C215.997 572.491 216.064 572.558 216.064 572.759C216.064 573.295 216.263 573.831 216.33 574.367C216.396 574.702 216.463 574.902 216.463 575.237C216.463 575.371 216.529 575.505 216.529 575.572C216.529 575.639 216.529 575.706 216.529 575.773C216.529 575.84 216.596 575.907 216.596 575.907C216.662 576.443 216.729 576.979 216.928 577.515C217.128 578.05 217.261 578.586 217.394 579.122C217.66 580.194 218.125 581.265 218.457 582.337C218.524 582.605 218.657 582.873 218.79 583.141C218.856 583.275 218.923 583.408 218.923 583.542C218.989 583.676 219.056 583.81 219.056 583.944C219.322 584.48 219.521 585.016 219.787 585.552C220.053 586.021 220.253 586.623 220.519 587.159C220.585 587.36 220.785 587.494 220.851 587.628C220.918 587.762 220.918 587.829 220.984 587.963C221.184 588.231 221.316 588.499 221.449 588.767C222.114 589.838 222.846 590.91 223.644 591.914C224.508 592.986 225.372 594.125 226.37 595.129C227.367 596.134 228.431 597.139 229.495 597.942C230.492 598.746 231.556 599.483 232.686 600.153C233.684 600.755 234.747 601.425 235.878 601.894C236.942 602.296 237.939 602.765 239.003 603.166C240.066 603.568 241.197 603.769 242.194 604.171H242.593C242.726 604.238 242.793 604.305 242.926 604.305H243.391V604.372H243.79V604.439H244.255V604.506H244.787C245.12 604.64 245.12 604.64 245.12 604.975C245.12 605.176 245.12 605.377 245.12 605.578C245.12 605.979 245.12 606.381 245.053 606.783C244.92 607.587 245.053 608.525 245.053 609.328C245.053 609.797 245.12 610.199 245.12 610.601C245.12 611.003 245.12 611.404 245.12 611.873C245.12 612.074 245.12 612.342 245.12 612.543C245.12 612.744 245.186 612.878 245.186 613.079C245.186 613.28 245.186 613.548 245.186 613.749C245.186 614.017 245.253 614.151 245.253 614.351C245.253 614.82 245.319 615.155 245.319 615.624C245.319 615.892 245.386 616.026 245.386 616.294C245.386 616.361 245.386 616.495 245.386 616.562C245.386 616.696 245.452 616.763 245.452 616.897C245.519 617.365 245.452 617.7 245.519 618.169C245.519 618.236 245.585 618.303 245.585 618.37C245.585 618.437 245.585 618.504 245.585 618.504C245.585 618.638 245.652 618.705 245.652 618.772C245.652 618.906 245.652 618.973 245.652 619.107C245.652 619.241 245.718 619.308 245.718 619.442C245.718 619.576 245.718 619.643 245.718 619.777C245.718 619.91 245.785 619.977 245.785 620.111C245.851 620.312 245.851 620.513 245.851 620.714C245.918 620.982 245.918 621.183 245.918 621.384C245.918 621.518 245.984 621.585 245.984 621.652C245.984 621.719 246.051 621.853 246.051 621.92C246.183 622.79 246.317 623.594 246.516 624.465C246.715 625.336 246.915 626.206 247.181 627.01C247.314 627.412 247.38 627.881 247.513 628.282C247.646 628.684 247.779 629.153 247.912 629.555C248.178 630.426 248.444 631.229 248.71 632.1C248.843 632.569 249.043 632.971 249.176 633.373C249.309 633.775 249.508 634.243 249.707 634.645C249.907 635.047 250.04 635.516 250.239 635.918C250.306 636.119 250.439 636.387 250.505 636.588C250.572 636.788 250.705 636.989 250.838 637.257C250.904 637.324 250.838 637.458 250.904 637.592C250.971 637.726 251.037 637.793 251.037 637.927C251.104 638.128 251.237 638.329 251.303 638.53C251.503 638.932 251.702 639.4 251.902 639.802C252.101 640.271 252.367 640.673 252.567 641.075C252.766 641.544 253.098 641.946 253.298 642.347C254.162 644.089 255.293 645.696 256.29 647.438C256.556 647.839 256.888 648.308 257.154 648.71C257.487 649.179 257.753 649.581 258.152 649.983C258.484 650.385 258.75 650.853 259.149 651.255C259.481 651.657 259.814 652.126 260.146 652.528C261.543 654.269 263.005 655.944 264.668 657.618C267.793 660.766 271.117 663.713 274.774 666.191C276.436 667.33 278.098 668.334 279.827 669.406C280.226 669.674 280.625 669.875 281.09 670.076C281.157 670.076 281.423 670.21 281.423 670.276C281.489 670.41 281.356 670.477 281.356 670.611C281.356 670.812 281.356 671.013 281.356 671.147C281.356 671.616 281.29 672.018 281.29 672.42C281.29 672.822 281.29 673.29 281.29 673.692C281.29 677.108 281.29 680.457 281.29 683.873C281.29 687.288 281.29 690.637 281.29 694.053C281.29 697.469 281.29 700.818 281.29 704.233H370.186C370.186 703.43 370.186 702.559 370.186 701.755C370.186 698.273 370.186 694.857 370.186 691.374C370.186 687.891 370.186 684.408 370.186 680.993C370.186 680.122 370.186 679.251 370.186 678.381C370.186 677.51 370.253 676.706 370.253 675.769C370.253 674.898 370.253 674.027 370.253 673.156C370.253 672.956 370.253 672.688 370.253 672.487C370.253 672.152 370.386 672.152 370.585 672.018C370.984 671.817 371.449 671.549 371.848 671.348C375.439 669.54 378.896 667.464 382.154 665.186C383.019 664.584 383.883 663.914 384.747 663.244C385.213 662.909 385.612 662.574 386.011 662.239C386.41 661.904 386.875 661.57 387.274 661.168C387.673 660.766 388.138 660.431 388.537 660.029C388.936 659.627 389.402 659.225 389.801 658.824C390.665 657.953 391.529 657.082 392.394 656.212C392.793 655.81 393.192 655.341 393.524 654.939C393.723 654.671 393.923 654.47 394.122 654.269C394.322 654.068 394.455 653.867 394.654 653.666C395.053 653.265 395.386 652.796 395.718 652.394C396.051 651.992 396.383 651.523 396.716 651.121C397.38 650.251 398.045 649.447 398.577 648.509C398.843 648.04 399.176 647.639 399.442 647.237C399.707 646.835 399.974 646.366 400.24 645.964C401.303 644.29 402.168 642.548 403.032 640.807C403.232 640.405 403.431 639.936 403.63 639.534C403.83 639.133 404.029 638.664 404.229 638.262C404.561 637.391 404.96 636.588 405.293 635.65C405.359 635.516 405.426 635.382 405.426 635.315C405.426 635.248 405.492 635.114 405.492 634.98C405.559 634.846 405.625 634.779 405.625 634.645C405.692 634.511 405.692 634.444 405.692 634.31C405.758 634.109 405.891 633.908 405.958 633.641C406.024 633.44 406.157 633.239 406.224 632.971C406.357 632.569 406.489 632.1 406.622 631.698C406.689 631.497 406.822 631.296 406.888 631.028C406.955 630.828 406.955 630.627 407.021 630.359C407.287 629.488 407.62 628.684 407.753 627.747C407.753 627.68 407.886 627.546 407.886 627.412C407.886 627.278 407.886 627.211 407.886 627.077C407.886 627.144 407.952 626.943 407.952 626.943C407.952 626.876 407.952 626.809 407.952 626.809L408.019 626.675C408.019 626.608 408.019 626.541 408.019 626.541L408.085 626.407C408.085 626.34 408.085 626.273 408.085 626.273C408.085 626.34 408.152 626.139 408.152 626.139C408.152 626.072 408.152 626.005 408.152 626.005C408.152 626.072 408.218 625.871 408.218 625.871C408.218 625.804 408.218 625.737 408.218 625.737L408.285 625.603C408.285 625.536 408.285 625.469 408.285 625.469C408.285 625.402 408.351 625.402 408.351 625.336C408.351 625.269 408.351 625.202 408.351 625.202C408.351 625.135 408.418 625.001 408.418 624.867C408.484 624.666 408.551 624.398 408.551 624.197C408.617 623.795 408.684 623.326 408.817 622.924C408.95 622.523 409.016 622.054 409.082 621.652C409.149 621.25 409.282 620.781 409.349 620.379C409.415 619.91 409.415 619.509 409.481 619.107C409.481 618.973 409.548 618.906 409.548 618.772C409.548 618.638 409.548 618.571 409.548 618.437C409.548 618.303 409.614 618.236 409.614 618.102C409.614 617.968 409.681 617.901 409.681 617.767C409.681 617.633 409.681 617.566 409.681 617.432C409.681 617.298 409.747 617.231 409.747 617.097C409.747 617.03 409.747 616.897 409.747 616.763C409.747 616.629 409.814 616.562 409.814 616.428C409.88 615.959 409.814 615.557 409.88 615.155C410.146 613.481 410.213 611.739 410.213 609.998C410.213 609.127 410.279 608.257 410.213 607.386C410.213 606.984 410.146 606.515 410.146 606.113C410.146 605.845 410.08 605.712 410.08 605.444C410.013 605.176 410.08 605.042 410.346 604.908H410.878V604.841H411.343V604.774H411.742V604.707H412.208C412.341 604.64 412.407 604.573 412.54 604.573H412.939C413.471 604.372 414.003 604.305 414.535 604.171C415.599 603.836 416.662 603.501 417.726 603.099C418.79 602.698 419.854 602.162 420.851 601.626C423.178 600.42 425.173 598.813 427.168 597.139C427.766 596.67 428.232 596.067 428.763 595.531C429.295 594.995 429.827 594.526 430.226 593.924C430.625 593.388 431.091 592.852 431.49 592.316C431.689 592.048 431.888 591.714 432.088 591.446C432.287 591.178 432.42 590.91 432.62 590.709C433.418 589.704 434.016 588.633 434.548 587.561C434.814 587.025 435.146 586.489 435.412 585.954C435.545 585.686 435.612 585.418 435.745 585.15C435.878 584.882 436.077 584.614 436.144 584.346C436.343 583.81 436.609 583.341 436.809 582.739C437.008 582.203 437.208 581.667 437.34 581.131C437.673 580.06 438.005 578.988 438.338 577.916C438.404 577.649 438.404 577.314 438.471 577.046C438.537 576.778 438.604 576.577 438.604 576.309C438.67 575.773 438.87 575.237 438.936 574.702C438.936 574.501 439.003 574.434 439.003 574.233C439.003 574.166 439.003 574.099 439.003 574.032C439.003 573.965 439.069 573.898 439.069 573.898C439.069 573.764 439.069 573.63 439.069 573.496C439.069 573.362 439.136 573.295 439.136 573.094C439.136 572.558 439.269 572.089 439.269 571.487C439.269 571.152 439.335 570.951 439.335 570.616C439.335 570.348 439.335 570.147 439.335 569.879C439.335 569.611 439.402 569.343 439.402 569.076C439.402 568.808 439.402 568.54 439.402 568.272C439.402 567.736 439.335 567.267 439.335 566.664C439.335 566.397 439.402 566.062 439.335 565.794C439.335 565.727 439.269 565.727 439.269 565.66C439.269 565.593 439.269 565.526 439.269 565.459C439.269 565.325 439.269 565.191 439.269 565.124C439.202 564.588 439.136 564.052 439.003 563.517C438.936 563.249 438.936 562.981 438.936 562.713C438.87 562.445 438.803 562.177 438.803 561.909C438.803 561.775 438.737 561.641 438.737 561.507C438.737 561.507 438.67 561.373 438.67 561.306C438.67 561.239 438.67 561.172 438.67 561.105C438.67 560.971 438.537 560.838 438.537 560.704C438.537 560.637 438.537 560.57 438.537 560.57L438.471 560.436C438.404 559.833 438.138 559.364 438.005 558.828C437.939 558.56 437.872 558.292 437.739 558.025C437.673 557.757 437.54 557.489 437.407 557.221C437.341 556.953 437.208 556.685 437.075 556.417C437.008 556.149 436.875 555.881 436.742 555.68C436.41 555.145 436.21 554.609 435.878 554.073C435.545 553.537 435.213 553.001 434.814 552.465C434.016 551.394 433.152 550.322 432.154 549.318C431.623 548.782 431.091 548.38 430.559 547.911C430.293 547.71 430.027 547.509 429.761 547.308C429.561 547.107 429.162 546.973 429.029 546.706H428.896C428.763 546.505 428.497 546.438 428.364 546.237C428.165 546.103 427.966 545.902 427.833 545.768C427.434 545.5 427.035 545.165 426.636 544.897C425.904 544.428 425.107 543.96 424.309 543.491C423.511 543.089 422.779 542.687 421.982 542.419C421.184 542.084 420.386 541.883 419.588 541.615H419.189V541.548H421.184V541.615H421.982V541.682H422.646V541.749H423.178V541.816H423.71V541.883H424.176V541.95H424.641V542.017H425.106V542.084H425.505V542.151H425.971V542.218H426.37V542.285H426.769V542.352H427.168V542.419H427.567V542.486H427.966V542.553H428.364V542.62H428.763V542.687H429.162C429.295 542.754 429.362 542.821 429.495 542.821H429.894V542.888H429.694V543.223Z" fill="#090E35"/>
<defs>
<filter id="filter0_d_1_10607" x="367.959" y="113.819" width="193.22" height="192.274" filterUnits="userSpaceOnUse" color-interpolation-filters="sRGB">
<feFlood flood-opacity="0" result="BackgroundImageFix"/>
<feColorMatrix in="SourceAlpha" type="matrix" values="0 0 0 0 0 0 0 0 0 0 0 0 0 0 0 0 0 0 127 0" result="hardAlpha"/>
<feMorphology radius="39" operator="dilate" in="SourceAlpha" result="effect1_dropShadow_1_10607"/>
<feOffset dx="2" dy="-1"/>
<feGaussianBlur stdDeviation="24.5"/>
<feComposite in2="hardAlpha" operator="out"/>
<feColorMatrix type="matrix" values="0 0 0 0 1 0 0 0 0 0.870065 0 0 0 0 0.408333 0 0 0 1 0"/>
<feBlend mode="normal" in2="BackgroundImageFix" result="effect1_dropShadow_1_10607"/>
<feBlend mode="normal" in="SourceGraphic" in2="effect1_dropShadow_1_10607" result="shape"/>
</filter>
<filter id="filter1_d_1_10607" x="174.006" y="11.8916" width="193.22" height="192.274" filterUnits="userSpaceOnUse" color-interpolation-filters="sRGB">
<feFlood flood-opacity="0" result="BackgroundImageFix"/>
<feColorMatrix in="SourceAlpha" type="matrix" values="0 0 0 0 0 0 0 0 0 0 0 0 0 0 0 0 0 0 127 0" result="hardAlpha"/>
<feMorphology radius="39" operator="dilate" in="SourceAlpha" result="effect1_dropShadow_1_10607"/>
<feOffset dx="2" dy="-1"/>
<feGaussianBlur stdDeviation="24.5"/>
<feComposite in2="hardAlpha" operator="out"/>
<feColorMatrix type="matrix" values="0 0 0 0 1 0 0 0 0 0.870065 0 0 0 0 0.408333 0 0 0 1 0"/>
<feBlend mode="normal" in2="BackgroundImageFix" result="effect1_dropShadow_1_10607"/>
<feBlend mode="normal" in="SourceGraphic" in2="effect1_dropShadow_1_10607" result="shape"/>
</filter>
<filter id="filter2_d_1_10607" x="9.05566" y="0.755859" width="193.22" height="192.274" filterUnits="userSpaceOnUse" color-interpolation-filters="sRGB">
<feFlood flood-opacity="0" result="BackgroundImageFix"/>
<feColorMatrix in="SourceAlpha" type="matrix" values="0 0 0 0 0 0 0 0 0 0 0 0 0 0 0 0 0 0 127 0" result="hardAlpha"/>
<feMorphology radius="39" operator="dilate" in="SourceAlpha" result="effect1_dropShadow_1_10607"/>
<feOffset dx="2" dy="-1"/>
<feGaussianBlur stdDeviation="24.5"/>
<feComposite in2="hardAlpha" operator="out"/>
<feColorMatrix type="matrix" values="0 0 0 0 1 0 0 0 0 0.870065 0 0 0 0 0.408333 0 0 0 1 0"/>
<feBlend mode="normal" in2="BackgroundImageFix" result="effect1_dropShadow_1_10607"/>
<feBlend mode="normal" in="SourceGraphic" in2="effect1_dropShadow_1_10607" result="shape"/>
</filter>
<filter id="filter3_d_1_10607" x="376.256" y="538.387" width="53.6562" height="53.6562" filterUnits="userSpaceOnUse" color-interpolation-filters="sRGB">
<feFlood flood-opacity="0" result="BackgroundImageFix"/>
<feColorMatrix in="SourceAlpha" type="matrix" values="0 0 0 0 0 0 0 0 0 0 0 0 0 0 0 0 0 0 127 0" result="hardAlpha"/>
<feMorphology radius="11.1903" operator="dilate" in="SourceAlpha" result="effect1_dropShadow_1_10607"/>
<feOffset dx="0.573864" dy="-0.286932"/>
<feGaussianBlur stdDeviation="7.02983"/>
<feComposite in2="hardAlpha" operator="out"/>
<feColorMatrix type="matrix" values="0 0 0 0 1 0 0 0 0 0.870065 0 0 0 0 0.408333 0 0 0 1 0"/>
<feBlend mode="normal" in2="BackgroundImageFix" result="effect1_dropShadow_1_10607"/>
<feBlend mode="normal" in="SourceGraphic" in2="effect1_dropShadow_1_10607" result="shape"/>
</filter>
<filter id="filter4_d_1_10607" x="227.051" y="538.387" width="50.7869" height="50.7869" filterUnits="userSpaceOnUse" color-interpolation-filters="sRGB">
<feFlood flood-opacity="0" result="BackgroundImageFix"/>
<feColorMatrix in="SourceAlpha" type="matrix" values="0 0 0 0 0 0 0 0 0 0 0 0 0 0 0 0 0 0 127 0" result="hardAlpha"/>
<feMorphology radius="11.1903" operator="dilate" in="SourceAlpha" result="effect1_dropShadow_1_10607"/>
<feOffset dx="0.573864" dy="-0.286932"/>
<feGaussianBlur stdDeviation="6.3125"/>
<feComposite in2="hardAlpha" operator="out"/>
<feColorMatrix type="matrix" values="0 0 0 0 1 0 0 0 0 0.870065 0 0 0 0 0.408333 0 0 0 1 0"/>
<feBlend mode="normal" in2="BackgroundImageFix" result="effect1_dropShadow_1_10607"/>
<feBlend mode="normal" in="SourceGraphic" in2="effect1_dropShadow_1_10607" result="shape"/>
</filter>
</defs>
</svg>
