<svg width="629" height="816" viewBox="0 0 629 816" fill="none" xmlns="http://www.w3.org/2000/svg">
<g style="mix-blend-mode:multiply">
<path d="M69.0893 401.874V381.011C69.0893 381.011 100.124 394.471 100.439 395.548C90.3569 366.204 77.7539 313.708 77.7539 313.708L84.8431 298.363C84.8431 298.363 115.878 366.473 122.81 381.011C127.063 389.895 141.714 405.913 154.947 423.815C155.42 415.335 155.735 408.605 155.735 404.432C155.735 375.626 169.598 298.363 171.331 280.595C173.064 262.827 186.927 178.295 185.194 164.969C183.461 151.643 155.735 104.261 155.735 104.261V78.821C155.735 78.821 199.058 122.029 209.455 139.259C211.976 143.432 213.866 155.815 215.442 172.237C240.963 151.239 254.983 121.895 256.401 104.261C257.977 83.3976 271.84 59.707 271.84 59.707L283.97 68.4564C283.97 68.4564 266.799 136.163 256.244 150.566C248.84 160.661 228.675 187.179 217.332 201.985C220.01 253.135 220.325 316.265 220.325 316.265L271.21 280.729C271.21 280.729 337.848 242.098 352.499 228.906C357.225 224.599 362.582 212.081 367.623 197.274C337.848 179.641 315.32 111.799 315.32 111.799L329.184 104.396C329.184 104.396 339.581 138.451 341.629 143.97C343.677 149.489 356.91 175.468 371.876 183.544C380.068 156.219 386.37 127.144 386.37 127.144H400.391C400.391 127.144 377.705 230.252 365.575 241.828C360.376 246.809 337.06 266.865 312.17 289.21C316.896 285.037 421.028 292.709 431.425 280.729C441.823 268.75 472.07 237.656 490.817 221.368C509.564 205.081 516.496 199.293 516.496 199.293L525.16 211.004C525.16 211.004 519.174 211.138 507.516 228.906C495.701 246.674 438.515 294.055 428.117 301.459C419.453 307.651 317.683 313.842 283.34 315.727C261.758 336.052 243.956 354.224 242.538 360.685C239.072 376.972 220.483 443.468 220.483 443.468C220.483 443.468 285.546 680.777 301.142 751.849L112.412 779.712C112.412 779.712 133.207 628.819 137.461 602.437C139.824 587.765 145.18 537.153 149.433 490.041C134.152 463.255 116.193 430.815 107.371 412.643L69.0893 401.874Z" fill="#391863"/>
<path opacity="0.36" d="M322.759 718.493C327.834 712.603 333.758 707.197 339.65 701.82C341.197 700.408 342.741 698.998 344.268 697.583C351.629 690.755 358.586 683.769 363.504 675.633C374.261 657.782 373.663 636.558 370.047 616.54C368.893 610.421 367.494 604.356 366.093 598.286C365.199 594.412 364.304 590.535 363.473 586.64C361.343 576.666 359.641 566.629 359.482 556.411C359.007 527.164 371.683 498.638 390.321 474.21C408.956 449.786 433.265 428.886 458.161 409.094C459.39 408.115 460.622 407.137 461.854 406.159C474.702 395.963 487.582 385.739 497.456 373.513L497.457 373.511C517.208 349.269 524.119 319.388 530.581 290.296C536.861 261.726 543.083 232.016 533.413 204.308C510.749 204.111 493.083 220.76 481.205 237.452C479.127 240.373 477.092 243.381 475.045 246.407C471.229 252.047 467.37 257.75 463.108 263.07C456.541 271.268 448.957 278.638 438.931 283.669L438.929 283.67C429.077 288.557 417.813 290.722 406.796 292.739C383.334 297.179 359.323 301.636 335.141 300.421L335.14 300.421C331.351 300.228 327.533 299.9 323.732 299.574C320.907 299.332 318.091 299.091 315.301 298.906C308.719 298.469 302.187 298.337 295.705 299.205C281.033 301.205 268.049 308.412 256.419 316.603L256.418 316.604C231.908 333.787 211.961 355.53 198.301 379.813L198.301 379.814C192.017 390.954 187.022 402.847 186.086 415.243C185.013 429.649 189.354 443.685 193.693 457.713L193.938 458.507L193.939 458.51C209.7 510.49 221.834 563.275 233.807 615.903C241.84 651.031 249.882 686.327 254.139 722.032L254.139 722.034C254.459 724.762 254.931 741.495 255.266 757.507C255.433 765.525 255.566 773.381 255.628 779.241C255.658 782.171 255.671 784.604 255.662 786.311C255.657 787.163 255.647 787.839 255.63 788.306C255.63 788.308 255.63 788.309 255.63 788.31C276.941 784.837 297.788 778.553 317.001 769.71C310.158 762.701 308.348 753.73 309.806 744.69C311.304 735.409 316.246 726.026 322.759 718.493ZM322.759 718.493L323.186 718.861L322.759 718.492C322.759 718.492 322.759 718.493 322.759 718.493Z" fill="white" stroke="white" stroke-width="1.15655"/>
<path opacity="0.51" d="M253.79 703.584C255.68 692.411 249.379 680.566 238.351 674.374C227.324 668.182 212.042 668.182 200.857 674.105C195.501 646.915 168.562 623.763 136.582 619.051C126.815 617.571 116.102 617.975 107.91 622.686C99.7183 627.397 95.4648 637.627 100.821 644.761C69.9437 638.838 35.7581 657.952 29.6142 684.47C24.573 705.872 36.2307 727.813 51.6694 745.311C105.705 807.23 210.152 831.459 295.222 804.942C329.25 794.308 380.765 761.06 355.559 725.928C336.812 699.68 283.722 684.47 253.79 703.584Z" fill="#391863"/>
<path opacity="0.36" d="M214.759 185.009L214.759 185.006C213.769 154.33 196.139 131.292 177.742 107.251C175.499 104.32 173.244 101.373 171.006 98.3964C164.488 89.576 161.122 76.3575 161.708 63.3841C162.294 50.409 166.826 37.8018 175.955 30.1334C187.29 20.7148 204.274 18.5571 220.192 17.8838L220.196 17.8836C236.255 17.0765 252.989 17.4905 267.031 23.8895C291.777 35.1926 300.867 62.3561 298.518 86.3023C297.343 98.2853 294.012 109.981 290.311 121.687C289.601 123.933 288.877 126.181 288.152 128.431C285.105 137.888 282.045 147.388 279.939 157.038L279.938 157.042C277.917 166.614 276.844 176.378 275.776 186.098C275.384 189.669 274.992 193.235 274.554 196.782C272.922 210.01 270.645 223.034 265.322 235.407C260.778 245.85 254.35 255.498 247.886 265.197L214.759 185.009ZM214.759 185.009C215.076 196.789 213.016 208.556 210.811 220.263C207.661 237.354 204.472 254.478 201.282 271.602L201.28 271.615L201.279 271.618C198.108 288.643 194.938 305.668 191.805 322.66C193.474 324.199 195.854 324.946 198.402 325.008C201.059 325.073 203.831 324.39 206.022 323.164L206.029 323.16C210.361 320.815 213.063 316.954 215.76 313.101C215.915 312.88 216.07 312.659 216.225 312.438C216.226 312.436 216.227 312.435 216.228 312.433L232.054 288.82L247.885 265.198L214.759 185.009ZM220.167 17.3066L220.167 17.3061L220.167 17.3066Z" fill="white" stroke="white" stroke-width="1.15655"/>
</g>
<g filter="url(#filter0_df_81_4481)">
<ellipse cx="8.61006" cy="8.13709" rx="8.61006" ry="8.13709" transform="matrix(1 0 0 -1 508.055 214.797)" fill="#FFDE68"/>
</g>
<g filter="url(#filter1_df_81_4481)">
<ellipse cx="8.61006" cy="8.13709" rx="8.61006" ry="8.13709" transform="matrix(1 0 0 -1 314.055 112.797)" fill="#FFDE68"/>
</g>
<g filter="url(#filter2_df_81_4481)">
<ellipse cx="8.61006" cy="8.13709" rx="8.61006" ry="8.13709" transform="matrix(1 0 0 -1 149.056 97.7969)" fill="#FFDE68"/>
</g>
<path opacity="0.6" d="M483.694 538.989C483.827 539.056 483.894 539.123 484.027 539.123H484.426C484.625 539.19 484.825 539.257 485.091 539.391H485.49C485.623 539.458 485.689 539.525 485.822 539.525H486.221C486.553 539.659 486.886 539.726 487.218 539.86H487.617C488.216 540.128 488.947 540.195 489.545 540.396H489.944C491.075 540.798 492.271 540.932 493.402 541.401H493.668C493.468 541.066 493.136 540.798 492.936 540.396H492.87C492.737 540.195 492.537 540.061 492.404 539.86H492.338C492.271 539.726 492.138 539.659 492.072 539.525H492.005C492.005 539.458 491.939 539.391 491.939 539.391H491.872C491.806 539.324 491.739 539.257 491.739 539.123H491.673C491.673 539.056 491.607 538.989 491.607 538.989H491.54V538.922H491.407C491.407 538.855 491.34 538.788 491.34 538.788H491.274V538.721H491.208V538.655H491.141V538.588H491.075V538.521H491.008V538.454H490.875V538.387H490.809V538.32H490.742V538.253H490.676V538.186H490.543V538.119H490.476V538.052H490.41V537.985H490.343V537.918H490.21V537.851H490.144V537.784H490.077V537.717H489.944V537.65H489.878C489.745 537.382 489.346 537.248 489.146 537.114C488.881 536.913 488.614 536.779 488.348 536.578C487.817 536.243 487.351 535.908 486.753 535.574C485.024 534.569 483.096 533.564 481.168 532.895C480.237 532.56 479.306 532.225 478.375 531.89C477.444 531.622 476.447 531.421 475.583 531.086H475.184C475.184 531.019 475.25 530.952 475.25 530.952H475.782V530.885H476.314V530.818H476.979V530.751H477.71V530.684H478.442V530.617H479.239V530.55H480.104V530.483H481.101V530.416H482.165V530.349H483.362V530.282H484.825V530.216H486.42V530.149H488.747C488.814 529.948 487.484 529.479 487.218 529.345C486.686 529.077 486.088 528.876 485.556 528.608C483.628 527.737 481.7 527.068 479.705 526.398C478.707 526.063 477.71 525.795 476.713 525.46C475.715 525.192 474.718 524.991 473.721 524.656H473.322C473.189 524.59 473.122 524.523 472.989 524.523H472.591V524.456H472.192V524.389H471.793V524.322H471.394V524.255H470.928V524.188H470.529V524.121H470.064V524.054H469.598V523.987H469.133V523.92H468.601V523.853H468.069V523.786H467.404V523.719H466.673V523.652H465.942V523.585H464.944V523.518H463.681V523.451H458.428V523.518H456.965V523.585H456.168V523.652H455.436V523.719H454.771V523.786H454.24V523.853H453.708V523.92H453.242V523.987H452.843V524.054H452.378V524.121H451.979V524.188H451.646V524.255H451.247V524.322H450.915V524.389H450.516V524.456H450.184V524.523H449.851C449.718 524.59 449.652 524.656 449.519 524.656H449.253C448.388 524.991 447.458 525.192 446.593 525.527C443.335 526.599 440.077 528.206 437.285 530.149H437.218V530.216H437.085V530.282H437.019V530.349H436.886V530.416H436.819V530.483H436.686V530.55H436.62V530.617H436.487V530.684H436.42V530.751H436.354V530.818H436.221V530.885H436.154V530.952H436.021C436.021 531.019 435.955 531.086 435.955 531.086H435.888C435.224 531.555 434.625 532.091 434.027 532.56C433.428 533.029 432.83 533.564 432.231 534.1C431.633 534.703 431.035 535.239 430.436 535.842C430.17 536.109 429.904 536.444 429.638 536.712C429.372 536.98 429.04 537.248 428.907 537.583H428.84V537.65H428.774C428.774 537.851 428.442 538.119 428.375 538.253C428.176 538.521 427.976 538.655 427.843 538.922C427.511 539.324 427.178 539.726 426.912 540.195C426.646 540.664 426.248 540.999 425.982 541.468C425.849 541.668 425.716 541.936 425.583 542.137C425.516 542.271 425.25 542.539 425.25 542.74H425.117C424.718 542.405 424.186 542.271 423.721 542.003C423.255 541.802 422.79 541.601 422.325 541.401C420.729 540.731 419.067 540.128 417.404 539.525C416.606 539.257 415.742 538.989 414.944 538.788C414.811 538.721 414.479 538.721 414.346 538.655C414.213 538.521 414.412 538.186 414.479 538.052C414.678 537.65 414.811 537.248 415.011 536.846C415.011 536.578 415.277 536.243 415.41 535.975C415.543 535.708 415.609 535.44 415.742 535.172C416.008 534.569 416.341 534.033 416.606 533.497C416.872 532.962 417.138 532.359 417.471 531.823C417.604 531.555 417.803 531.287 417.936 530.952C418.069 530.684 418.269 530.416 418.402 530.149C418.867 529.144 419.598 528.206 420.064 527.135C420.197 526.867 420.463 526.599 420.596 526.398C420.729 526.13 420.862 525.929 421.061 525.728C421.394 525.259 421.726 524.723 422.059 524.188C423.322 522.111 424.851 520.169 426.38 518.227C427.112 517.222 427.976 516.218 428.774 515.28C429.572 514.275 430.503 513.204 431.5 512.333C431.766 512.132 432.032 511.797 432.298 511.596C432.497 511.395 432.763 511.194 432.963 511.06C433.428 510.658 433.894 510.324 434.426 510.056C434.891 509.788 435.356 509.52 435.888 509.319C436.154 509.185 437.351 508.984 436.952 508.515H435.489V508.448H433.561V508.381H433.029C433.229 507.979 433.428 507.645 433.628 507.31C433.761 507.109 433.894 506.975 433.894 506.774C433.894 506.573 433.761 506.439 433.827 506.238H433.761V506.171H433.694V506.104H433.628V506.037H433.495V505.97H432.83V505.903H432.032V505.97H430.636V506.037H429.971V506.104H429.439V506.171H429.04V506.238H428.708C428.708 505.501 428.575 504.698 428.442 503.961C428.375 503.559 428.309 503.157 428.309 502.755C428.309 502.554 428.176 502.353 428.176 502.219C428.109 502.086 428.176 501.818 428.043 501.684C428.043 501.349 427.71 500.88 427.378 500.679H426.713C426.447 500.88 426.247 501.148 426.048 501.349C425.848 501.483 425.583 501.617 425.383 501.684H424.851C424.452 501.483 424.186 501.282 423.854 501.014C423.721 500.88 423.588 500.746 423.455 500.545C423.388 500.411 423.189 500.277 423.122 500.076C422.989 499.741 422.79 499.473 422.59 499.139C422.391 498.804 422.125 498.469 421.859 498.268H421.194C420.862 498.536 420.729 498.603 420.662 499.005C420.596 499.34 420.729 499.607 420.729 499.875C420.795 500.411 420.729 501.081 420.729 501.617C420.729 502.353 420.729 503.157 420.729 503.894C420.729 504.296 420.662 504.631 420.662 505.099C420.662 505.3 420.662 505.501 420.662 505.635C420.662 505.836 420.596 505.97 420.596 506.171C420.596 506.908 420.463 507.511 420.463 508.247H420.396V508.314V508.381C420.396 508.649 420.33 508.85 420.33 509.118C420.33 509.319 420.263 509.386 420.263 509.52C420.263 509.587 420.263 509.654 420.263 509.788C420.263 509.855 420.197 509.922 420.197 509.922C420.13 510.19 420.13 510.391 420.13 510.658C420.13 510.926 419.997 511.194 419.997 511.395C419.931 511.663 419.864 511.931 419.864 512.199C419.864 512.333 419.798 512.467 419.798 512.601C419.798 512.735 419.731 512.869 419.731 512.936C419.665 513.204 419.665 513.471 419.598 513.672C419.532 513.94 419.532 514.208 419.466 514.476C419.399 514.744 419.333 514.945 419.333 515.213C419.333 515.414 419.133 515.682 419.067 515.883C419 516.351 418.801 516.82 418.734 517.289C418.468 518.227 418.202 519.164 417.87 520.102C417.537 521.04 417.138 521.977 416.806 522.915C416.673 523.384 416.407 523.853 416.274 524.322C416.141 524.79 415.875 525.259 415.676 525.728C415.476 526.197 415.21 526.666 415.011 527.135C414.878 527.403 414.678 527.603 414.545 527.871C414.412 528.072 414.279 528.34 414.146 528.541C413.814 529.01 413.481 529.479 413.083 529.948C412.684 530.416 412.351 530.952 411.886 531.354C411.021 532.225 410.09 533.229 409.226 534.167C408.761 534.636 408.295 535.038 407.83 535.507C407.564 535.775 407.364 535.908 407.098 536.176C406.899 536.377 406.567 536.511 406.5 536.712H406.035V536.645H405.503V536.578H404.838V536.511H404.106V536.444H403.375V536.377H402.511V536.31H401.513V536.243H400.317V536.176H398.521V536.109H365.077V536.176H362.817V536.243H361.553V536.31H360.489V536.377H359.691V536.444H358.894V536.511H358.229C358.096 536.243 357.763 536.042 357.497 535.842C357.231 535.574 356.965 535.373 356.699 535.105C356.168 534.569 355.702 534.167 355.17 533.631C354.638 533.095 354.239 532.56 353.707 532.091C353.176 531.555 352.71 531.086 352.311 530.483C351.58 529.546 350.915 528.675 350.317 527.67C349.785 526.8 349.253 525.862 348.92 524.924C348.787 524.456 348.521 523.987 348.388 523.518C348.255 523.049 347.989 522.58 347.856 522.111C347.524 521.174 347.192 520.236 346.859 519.298C346.726 518.83 346.593 518.361 346.46 517.892C346.327 517.423 346.194 516.954 346.061 516.485C345.795 515.615 345.662 514.61 345.33 513.739C345.263 513.538 345.197 513.204 345.197 513.003C345.13 512.735 345.064 512.534 345.064 512.333C344.997 511.864 344.931 511.395 344.798 510.926C344.731 510.725 344.731 510.458 344.665 510.19C344.665 509.989 344.599 509.721 344.532 509.52C344.466 509.051 344.399 508.649 344.399 508.18V508.113V508.046C344.266 507.912 344.333 507.712 344.333 507.511C344.333 507.31 344.266 507.176 344.266 506.975C344.266 506.573 344.2 506.305 344.2 505.903C344.2 505.501 344.133 505.166 344.133 504.765C344.133 504.363 344.066 504.028 344.066 503.626C344.066 502.889 344.066 502.086 344.066 501.349C344.066 501.081 344.066 500.813 344.066 500.478C344.066 500.344 344.066 500.143 344.066 500.009C344.066 499.942 344.066 499.875 344.066 499.808C344.066 499.741 344.133 499.674 344.133 499.607C344.2 499.34 344.2 499.005 344.133 498.737C344.067 498.335 343.867 498.201 343.601 498H342.936C342.87 498.134 342.604 498.268 342.537 498.402C342.404 498.536 342.338 498.67 342.205 498.871C342.005 499.206 341.872 499.54 341.673 499.875C341.208 500.545 340.742 501.081 340.011 501.483H339.479C339.213 501.416 339.013 501.282 338.814 501.148C338.548 500.947 338.415 500.679 338.149 500.478H337.484C337.152 500.679 336.886 501.081 336.819 501.483C336.686 501.617 336.686 501.885 336.686 502.019C336.62 502.219 336.553 502.42 336.553 502.554C336.487 502.889 336.42 503.358 336.42 503.693C336.42 504.095 336.287 504.497 336.287 504.899C336.221 505.3 336.221 505.635 336.221 505.97H335.888V505.903H335.489V505.836H334.957V505.769H334.293V505.702H332.896V505.635H332.098V505.702H331.433V505.769H331.301V505.836H331.234V505.903H331.168V505.97H331.101C331.168 506.171 330.968 506.305 331.035 506.506C331.035 506.707 331.234 506.908 331.301 507.042C331.434 507.243 331.5 507.377 331.567 507.578C331.633 507.779 331.899 507.912 331.899 508.113H331.367V508.18H329.439V508.247H327.976C327.644 508.582 328.176 508.716 328.375 508.783C328.641 508.85 328.907 508.984 329.173 509.118C329.771 509.386 330.303 509.654 330.835 509.989C332.032 510.792 333.096 511.73 334.16 512.735C336.021 514.61 337.551 516.686 339.08 518.629C339.811 519.566 340.609 520.571 341.274 521.576C341.606 522.111 341.939 522.513 342.338 523.049C342.67 523.518 342.936 524.054 343.335 524.523C343.668 524.991 344 525.527 344.333 525.996C344.665 526.465 344.931 527.001 345.197 527.469C345.529 527.938 345.729 528.474 346.061 528.943C346.327 529.412 346.66 529.948 346.926 530.416C347.125 530.952 347.457 531.354 347.723 531.89C347.989 532.359 348.255 532.828 348.455 533.363C348.92 534.368 349.452 535.306 349.918 536.31V536.377H349.984V536.444V536.511H350.051C349.984 536.779 350.25 537.047 350.383 537.248C350.383 537.315 350.516 537.65 350.516 537.65C350.45 537.784 350.317 537.784 350.184 537.784C349.652 537.918 349.186 538.052 348.654 538.186C346.793 538.655 344.931 539.257 343.202 539.994C342.271 540.329 341.34 540.664 340.41 541.066C339.944 541.267 339.479 541.468 339.013 541.668C338.548 541.869 338.016 542.003 337.617 542.338H337.484C337.484 542.137 337.285 541.869 337.152 541.735C337.019 541.534 336.886 541.267 336.753 541.066C336.487 540.597 336.088 540.262 335.822 539.793C335.556 539.391 335.224 538.922 334.891 538.521C334.692 538.32 334.492 538.119 334.359 537.851C334.293 537.717 333.96 537.449 333.96 537.248H333.894V537.181H333.827C333.628 536.846 333.295 536.511 333.029 536.243C332.763 535.975 332.497 535.641 332.231 535.373C331.633 534.77 331.035 534.234 330.436 533.698C329.838 533.095 329.239 532.627 328.641 532.091C328.043 531.622 327.444 531.086 326.846 530.617H326.779C326.779 530.55 326.713 530.483 326.713 530.483H326.58V530.416H326.513V530.349H326.38V530.282H326.314V530.216H326.247V530.149H326.114V530.082H326.048V530.015H325.915V529.948H325.848V529.881H325.715V529.814H325.649V529.747H325.516V529.68H325.45C324.585 529.077 323.721 528.541 322.79 528.005C321.261 527.135 319.665 526.398 318.069 525.728C317.271 525.393 316.473 525.125 315.676 524.857C314.878 524.59 314.08 524.456 313.348 524.121H313.083C312.95 524.054 312.883 523.987 312.75 523.987H312.418C312.285 523.92 312.218 523.853 312.085 523.853H311.686V523.786H311.354V523.719H310.955V523.652H310.556V523.585H310.157V523.518H309.758V523.451H309.293V523.384H308.827V523.317H308.295V523.25H307.763V523.183H307.098V523.116H306.367V523.049H305.503V522.982H304.306V522.915H299.053V522.982H297.79V523.049H296.793V523.116H295.795V523.183H295.13V523.25H294.465V523.317H293.934V523.384H293.468V523.451H292.936V523.518H292.471V523.585H292.072V523.652H291.606V523.719H291.207V523.786H290.809V523.853H290.41C290.277 523.92 290.21 523.987 290.077 523.987H289.678C289.545 524.054 289.479 524.121 289.346 524.121H288.947C287.883 524.523 286.686 524.723 285.556 525.058C283.561 525.661 281.633 526.331 279.705 527.068C278.707 527.403 277.71 527.804 276.713 528.273C276.247 528.474 275.715 528.742 275.25 528.943C275.051 529.01 273.92 529.412 273.92 529.68H276.247V529.747H277.843V529.814H279.306V529.881H280.503V529.948H281.567V530.015H282.564V530.082H283.428V530.149H284.226V530.216H284.957V530.282H285.689V530.349H286.354V530.416H286.886V530.483H287.418C287.418 530.55 287.484 530.617 287.484 530.617H287.085C286.088 531.019 284.957 531.22 283.894 531.555C281.965 532.225 280.104 532.895 278.309 533.832C277.378 534.301 276.447 534.77 275.516 535.306C275.051 535.574 274.585 535.908 274.12 536.176C273.854 536.31 273.654 536.511 273.388 536.645C273.189 536.779 272.856 536.913 272.79 537.114H272.723V537.181H272.59V537.248H272.524V537.315H272.457V537.382H272.324V537.449H272.258V537.516H272.192V537.583H272.125V537.65H271.992V537.717H271.926V537.784H271.859V537.851H271.793V537.918H271.66V537.985H271.593V538.052H271.527V538.119H271.46V538.186H271.394V538.253H271.327C271.327 538.32 271.261 538.387 271.261 538.387H271.128V538.454H271.061C271.061 538.521 270.995 538.588 270.995 538.588H270.928C270.862 538.655 270.795 538.721 270.795 538.855H270.729C270.729 538.922 270.662 538.989 270.662 538.989H270.596C270.529 539.123 270.396 539.19 270.33 539.324H270.263C270.13 539.525 269.931 539.659 269.798 539.86H269.731C269.532 540.195 269.199 540.463 269 540.865H269.266C270.396 540.463 271.593 540.329 272.723 539.86H273.122C273.721 539.592 274.452 539.525 275.051 539.324H275.449C275.782 539.19 276.114 539.123 276.447 538.989H276.846C276.979 538.922 277.045 538.855 277.178 538.855H277.577C277.777 538.788 277.976 538.721 278.242 538.588H278.641C278.774 538.521 278.84 538.454 278.973 538.454H279.372V538.387H279.771C279.904 538.32 279.971 538.253 280.104 538.253H280.503V538.186H280.902V538.119H281.301V538.052H281.699V537.985H282.098V537.918H282.497V537.851H282.896V537.784H283.295V537.717H283.761V537.65H284.16V537.583H284.625V537.516H285.09V537.449H285.556V537.382H286.088V537.315H286.62V537.248H287.285V537.181H288.082V537.114H290.077V537.181H289.678C288.88 537.449 288.082 537.65 287.285 537.985C286.487 538.32 285.689 538.721 284.957 539.056C284.16 539.458 283.362 539.927 282.564 540.463C281.766 540.999 281.035 541.668 280.237 542.204H280.17C279.638 542.539 279.106 543.008 278.574 543.41C277.444 544.347 276.447 545.352 275.449 546.424C274.585 547.428 273.92 548.5 273.189 549.572C272.989 549.84 272.923 550.174 272.723 550.442C272.59 550.71 272.391 550.978 272.258 551.179C272.192 551.313 272.191 551.447 272.125 551.648C272.058 551.782 271.992 551.916 271.992 551.983C271.926 552.117 271.859 552.251 271.859 552.385C271.793 552.519 271.793 552.452 271.793 552.519C271.793 552.519 271.726 552.719 271.726 552.786C271.46 553.322 271.327 553.791 271.194 554.327C270.995 554.863 270.795 555.332 270.729 555.934C270.729 556.068 270.596 556.269 270.596 556.403C270.529 556.537 270.529 556.671 270.529 556.738C270.463 557.006 270.463 557.274 270.396 557.542C270.263 558.011 270.197 558.546 270.13 559.149C270.13 559.216 270.064 559.35 270.064 559.417C270.064 559.484 270.064 559.551 270.064 559.551C270.064 559.685 269.997 559.819 269.997 559.953C269.931 560.221 269.931 560.422 269.931 560.69C269.931 560.824 269.931 561.025 269.931 561.158C269.931 561.292 269.864 561.359 269.864 561.493C269.864 561.761 269.864 562.029 269.864 562.23C269.864 563.235 269.598 564.373 269.798 565.378C269.798 565.445 269.864 565.579 269.864 565.646C269.864 565.713 269.864 565.78 269.864 565.847C269.864 565.981 269.864 566.115 269.864 566.182C269.864 566.45 269.931 566.651 269.931 566.918C269.931 567.253 269.997 567.454 269.997 567.722C269.997 567.856 269.997 567.99 269.997 568.124C269.997 568.258 270.064 568.325 270.064 568.526C270.064 569.062 270.263 569.597 270.33 570.133C270.396 570.468 270.463 570.669 270.463 571.004C270.463 571.138 270.529 571.272 270.529 571.339C270.529 571.406 270.529 571.473 270.529 571.54C270.529 571.607 270.596 571.674 270.596 571.674C270.662 572.21 270.729 572.745 270.928 573.281C271.128 573.817 271.261 574.353 271.394 574.889C271.66 575.96 272.125 577.032 272.457 578.103C272.524 578.371 272.657 578.639 272.79 578.907C272.856 579.041 272.923 579.175 272.923 579.309C272.989 579.443 273.056 579.577 273.056 579.711C273.322 580.247 273.521 580.782 273.787 581.318C274.053 581.787 274.253 582.39 274.519 582.926C274.585 583.127 274.785 583.261 274.851 583.395C274.918 583.529 274.918 583.595 274.984 583.729C275.184 583.997 275.316 584.265 275.449 584.533C276.114 585.605 276.846 586.676 277.644 587.681C278.508 588.753 279.372 589.891 280.37 590.896C281.367 591.901 282.431 592.905 283.495 593.709C284.492 594.513 285.556 595.249 286.686 595.919C287.684 596.522 288.747 597.192 289.878 597.66C290.942 598.062 291.939 598.531 293.003 598.933C294.066 599.335 295.197 599.536 296.194 599.938H296.593C296.726 600.005 296.793 600.072 296.926 600.072H297.391V600.139H297.79V600.206H298.255V600.273H298.787C299.12 600.407 299.12 600.406 299.12 600.741C299.12 600.942 299.12 601.143 299.12 601.344C299.12 601.746 299.12 602.148 299.053 602.55C298.92 603.353 299.053 604.291 299.053 605.095C299.053 605.564 299.12 605.966 299.12 606.367C299.12 606.769 299.12 607.171 299.12 607.64C299.12 607.841 299.12 608.109 299.12 608.31C299.12 608.511 299.186 608.645 299.186 608.845C299.186 609.046 299.186 609.314 299.186 609.515C299.186 609.783 299.253 609.917 299.253 610.118C299.253 610.587 299.319 610.922 299.319 611.391C299.319 611.658 299.386 611.792 299.386 612.06C299.386 612.127 299.386 612.261 299.386 612.328C299.386 612.462 299.452 612.529 299.452 612.663C299.519 613.132 299.452 613.467 299.519 613.936C299.519 614.003 299.585 614.07 299.585 614.137C299.585 614.204 299.585 614.271 299.585 614.271C299.585 614.405 299.652 614.471 299.652 614.538C299.652 614.672 299.652 614.739 299.652 614.873C299.652 615.007 299.718 615.074 299.718 615.208C299.718 615.342 299.718 615.409 299.718 615.543C299.718 615.677 299.785 615.744 299.785 615.878C299.851 616.079 299.851 616.28 299.851 616.481C299.918 616.749 299.918 616.95 299.918 617.151C299.918 617.284 299.984 617.351 299.984 617.418C299.984 617.485 300.051 617.619 300.051 617.686C300.183 618.557 300.317 619.361 300.516 620.231C300.715 621.102 300.915 621.973 301.181 622.777C301.314 623.178 301.38 623.647 301.513 624.049C301.646 624.451 301.779 624.92 301.912 625.322C302.178 626.192 302.444 626.996 302.71 627.867C302.843 628.336 303.043 628.737 303.176 629.139C303.309 629.541 303.508 630.01 303.707 630.412C303.907 630.814 304.04 631.282 304.239 631.684C304.306 631.885 304.439 632.153 304.505 632.354C304.572 632.555 304.705 632.756 304.838 633.024C304.904 633.091 304.838 633.225 304.904 633.359C304.971 633.493 305.037 633.56 305.037 633.694C305.104 633.895 305.237 634.095 305.303 634.296C305.503 634.698 305.702 635.167 305.902 635.569C306.101 636.038 306.367 636.44 306.567 636.842C306.766 637.31 307.098 637.712 307.298 638.114C308.162 639.855 309.293 641.463 310.29 643.204C310.556 643.606 310.888 644.075 311.154 644.477C311.487 644.946 311.753 645.347 312.152 645.749C312.484 646.151 312.75 646.62 313.149 647.022C313.481 647.424 313.814 647.893 314.146 648.294C315.543 650.036 317.005 651.71 318.668 653.385C321.793 656.532 325.117 659.479 328.774 661.958C330.436 663.096 332.098 664.101 333.827 665.172C334.226 665.44 334.625 665.641 335.09 665.842C335.157 665.842 335.423 665.976 335.423 666.043C335.489 666.177 335.356 666.244 335.356 666.378C335.356 666.579 335.356 666.78 335.356 666.914C335.356 667.383 335.29 667.784 335.29 668.186C335.29 668.588 335.29 669.057 335.29 669.459C335.29 672.875 335.29 676.223 335.29 679.639C335.29 683.055 335.29 686.404 335.29 689.82C335.29 693.235 335.29 696.584 335.29 700H424.186C424.186 699.196 424.186 698.326 424.186 697.522C424.186 694.039 424.186 690.623 424.186 687.141C424.186 683.658 424.186 680.175 424.186 676.759C424.186 675.889 424.186 675.018 424.186 674.147C424.186 673.277 424.253 672.473 424.253 671.535C424.253 670.664 424.253 669.794 424.253 668.923C424.253 668.722 424.253 668.454 424.253 668.253C424.253 667.918 424.386 667.918 424.585 667.784C424.984 667.584 425.449 667.316 425.848 667.115C429.439 665.306 432.896 663.23 436.154 660.953C437.019 660.35 437.883 659.68 438.747 659.011C439.213 658.676 439.612 658.341 440.011 658.006C440.41 657.671 440.875 657.336 441.274 656.934C441.673 656.532 442.138 656.198 442.537 655.796C442.936 655.394 443.402 654.992 443.801 654.59C444.665 653.719 445.529 652.849 446.394 651.978C446.793 651.576 447.192 651.107 447.524 650.706C447.723 650.438 447.923 650.237 448.122 650.036C448.322 649.835 448.455 649.634 448.654 649.433C449.053 649.031 449.386 648.562 449.718 648.16C450.051 647.759 450.383 647.29 450.716 646.888C451.38 646.017 452.045 645.214 452.577 644.276C452.843 643.807 453.176 643.405 453.442 643.003C453.707 642.601 453.974 642.133 454.24 641.731C455.303 640.056 456.168 638.315 457.032 636.574C457.232 636.172 457.431 635.703 457.63 635.301C457.83 634.899 458.029 634.43 458.229 634.029C458.561 633.158 458.96 632.354 459.293 631.416C459.359 631.283 459.426 631.149 459.426 631.082C459.426 631.015 459.492 630.881 459.492 630.747C459.559 630.613 459.625 630.546 459.625 630.412C459.692 630.278 459.692 630.211 459.692 630.077C459.758 629.876 459.891 629.675 459.958 629.407C460.024 629.206 460.157 629.005 460.224 628.737C460.357 628.336 460.489 627.867 460.622 627.465C460.689 627.264 460.822 627.063 460.888 626.795C460.955 626.594 460.955 626.393 461.021 626.125C461.287 625.255 461.62 624.451 461.753 623.513C461.753 623.446 461.886 623.312 461.886 623.178C461.886 623.044 461.886 622.977 461.886 622.843C461.886 622.91 461.952 622.71 461.952 622.71C461.952 622.643 461.952 622.576 461.952 622.576L462.019 622.442C462.019 622.375 462.019 622.308 462.019 622.308L462.085 622.174C462.085 622.107 462.085 622.04 462.085 622.04C462.085 622.107 462.152 621.906 462.152 621.906C462.152 621.839 462.152 621.772 462.152 621.772C462.152 621.839 462.218 621.638 462.218 621.638C462.218 621.571 462.218 621.504 462.218 621.504L462.285 621.37C462.285 621.303 462.285 621.236 462.285 621.236C462.285 621.169 462.351 621.169 462.351 621.102C462.351 621.035 462.351 620.968 462.351 620.968C462.351 620.901 462.418 620.767 462.418 620.633C462.484 620.432 462.551 620.164 462.551 619.964C462.617 619.562 462.684 619.093 462.817 618.691C462.95 618.289 463.016 617.82 463.082 617.418C463.149 617.017 463.282 616.548 463.349 616.146C463.415 615.677 463.415 615.275 463.481 614.873C463.481 614.739 463.548 614.672 463.548 614.538C463.548 614.405 463.548 614.338 463.548 614.204C463.548 614.07 463.614 614.003 463.614 613.869C463.614 613.735 463.681 613.668 463.681 613.534C463.681 613.4 463.681 613.333 463.681 613.199C463.681 613.065 463.747 612.998 463.747 612.864C463.747 612.797 463.747 612.663 463.747 612.529C463.747 612.395 463.814 612.328 463.814 612.194C463.88 611.725 463.814 611.324 463.88 610.922C464.146 609.247 464.213 607.506 464.213 605.765C464.213 604.894 464.279 604.023 464.213 603.153C464.213 602.751 464.146 602.282 464.146 601.88C464.146 601.612 464.08 601.478 464.08 601.21C464.013 600.942 464.08 600.808 464.346 600.674H464.878V600.607H465.343V600.54H465.742V600.473H466.208C466.341 600.406 466.407 600.34 466.54 600.34H466.939C467.471 600.139 468.003 600.072 468.535 599.938C469.599 599.603 470.662 599.268 471.726 598.866C472.79 598.464 473.854 597.928 474.851 597.393C477.178 596.187 479.173 594.58 481.168 592.905C481.766 592.436 482.232 591.834 482.763 591.298C483.295 590.762 483.827 590.293 484.226 589.69C484.625 589.155 485.091 588.619 485.49 588.083C485.689 587.815 485.888 587.48 486.088 587.212C486.287 586.944 486.42 586.676 486.62 586.475C487.418 585.471 488.016 584.399 488.548 583.328C488.814 582.792 489.146 582.256 489.412 581.72C489.545 581.452 489.612 581.184 489.745 580.916C489.878 580.649 490.077 580.381 490.144 580.113C490.343 579.577 490.609 579.108 490.809 578.505C491.008 577.97 491.208 577.434 491.34 576.898C491.673 575.826 492.005 574.755 492.338 573.683C492.404 573.415 492.404 573.08 492.471 572.812C492.537 572.544 492.604 572.344 492.604 572.076C492.67 571.54 492.87 571.004 492.936 570.468C492.936 570.267 493.003 570.2 493.003 569.999C493.003 569.932 493.003 569.865 493.003 569.798C493.003 569.731 493.069 569.664 493.069 569.664C493.069 569.531 493.069 569.397 493.069 569.263C493.069 569.129 493.136 569.062 493.136 568.861C493.136 568.325 493.269 567.856 493.269 567.253C493.269 566.918 493.335 566.718 493.335 566.383C493.335 566.115 493.335 565.914 493.335 565.646C493.335 565.378 493.402 565.11 493.402 564.842C493.402 564.574 493.402 564.306 493.402 564.038C493.402 563.503 493.335 563.034 493.335 562.431C493.335 562.163 493.402 561.828 493.335 561.56C493.335 561.493 493.269 561.493 493.269 561.426C493.269 561.359 493.269 561.292 493.269 561.225C493.269 561.092 493.269 560.958 493.269 560.891C493.202 560.355 493.136 559.819 493.003 559.283C492.936 559.015 492.936 558.747 492.936 558.479C492.87 558.212 492.803 557.944 492.803 557.676C492.803 557.542 492.737 557.408 492.737 557.274C492.737 557.274 492.67 557.14 492.67 557.073C492.67 557.006 492.67 556.939 492.67 556.872C492.67 556.738 492.537 556.604 492.537 556.47C492.537 556.403 492.537 556.336 492.537 556.336L492.471 556.202C492.404 555.599 492.138 555.131 492.005 554.595C491.939 554.327 491.872 554.059 491.739 553.791C491.673 553.523 491.54 553.255 491.407 552.987C491.341 552.719 491.208 552.452 491.075 552.184C491.008 551.916 490.875 551.648 490.742 551.447C490.41 550.911 490.21 550.375 489.878 549.84C489.545 549.304 489.213 548.768 488.814 548.232C488.016 547.16 487.152 546.089 486.154 545.084C485.623 544.548 485.091 544.147 484.559 543.678C484.293 543.477 484.027 543.276 483.761 543.075C483.561 542.874 483.162 542.74 483.029 542.472H482.896C482.763 542.271 482.497 542.204 482.364 542.003C482.165 541.869 481.966 541.668 481.833 541.534C481.434 541.267 481.035 540.932 480.636 540.664C479.904 540.195 479.107 539.726 478.309 539.257C477.511 538.855 476.779 538.454 475.982 538.186C475.184 537.851 474.386 537.65 473.588 537.382H473.189V537.315H475.184V537.382H475.982V537.449H476.646V537.516H477.178V537.583H477.71V537.65H478.176V537.717H478.641V537.784H479.106V537.851H479.505V537.918H479.971V537.985H480.37V538.052H480.769V538.119H481.168V538.186H481.567V538.253H481.966V538.32H482.364V538.387H482.763V538.454H483.162C483.295 538.521 483.362 538.588 483.495 538.588H483.894V538.655H483.694V538.989Z" fill="#090E35"/>
<g filter="url(#filter3_df_81_4481)">
<circle cx="0.5" cy="0.5" r="0.5" transform="matrix(1 0 0 -1 456.055 562)" fill="#FFDE68"/>
</g>
<g filter="url(#filter4_df_81_4481)">
<circle cx="0.5" cy="0.5" r="0.5" transform="matrix(1 0 0 -1 297.056 562)" fill="#FFDE68"/>
</g>
<defs>
<filter id="filter0_df_81_4481" x="419.055" y="102.522" width="209.221" height="208.274" filterUnits="userSpaceOnUse" color-interpolation-filters="sRGB">
<feFlood flood-opacity="0" result="BackgroundImageFix"/>
<feColorMatrix in="SourceAlpha" type="matrix" values="0 0 0 0 0 0 0 0 0 0 0 0 0 0 0 0 0 0 127 0" result="hardAlpha"/>
<feMorphology radius="40" operator="dilate" in="SourceAlpha" result="effect1_dropShadow_81_4481"/>
<feOffset dx="7"/>
<feGaussianBlur stdDeviation="28"/>
<feComposite in2="hardAlpha" operator="out"/>
<feColorMatrix type="matrix" values="0 0 0 0 1 0 0 0 0 0.870588 0 0 0 0 0.407843 0 0 0 1 0"/>
<feBlend mode="normal" in2="BackgroundImageFix" result="effect1_dropShadow_81_4481"/>
<feBlend mode="normal" in="SourceGraphic" in2="effect1_dropShadow_81_4481" result="shape"/>
<feGaussianBlur stdDeviation="10" result="effect2_foregroundBlur_81_4481"/>
</filter>
<filter id="filter1_df_81_4481" x="225.055" y="0.522461" width="209.22" height="208.274" filterUnits="userSpaceOnUse" color-interpolation-filters="sRGB">
<feFlood flood-opacity="0" result="BackgroundImageFix"/>
<feColorMatrix in="SourceAlpha" type="matrix" values="0 0 0 0 0 0 0 0 0 0 0 0 0 0 0 0 0 0 127 0" result="hardAlpha"/>
<feMorphology radius="40" operator="dilate" in="SourceAlpha" result="effect1_dropShadow_81_4481"/>
<feOffset dx="7"/>
<feGaussianBlur stdDeviation="28"/>
<feComposite in2="hardAlpha" operator="out"/>
<feColorMatrix type="matrix" values="0 0 0 0 1 0 0 0 0 0.870588 0 0 0 0 0.407843 0 0 0 1 0"/>
<feBlend mode="normal" in2="BackgroundImageFix" result="effect1_dropShadow_81_4481"/>
<feBlend mode="normal" in="SourceGraphic" in2="effect1_dropShadow_81_4481" result="shape"/>
<feGaussianBlur stdDeviation="10" result="effect2_foregroundBlur_81_4481"/>
</filter>
<filter id="filter2_df_81_4481" x="76.0557" y="1.52246" width="177.22" height="176.274" filterUnits="userSpaceOnUse" color-interpolation-filters="sRGB">
<feFlood flood-opacity="0" result="BackgroundImageFix"/>
<feColorMatrix in="SourceAlpha" type="matrix" values="0 0 0 0 0 0 0 0 0 0 0 0 0 0 0 0 0 0 127 0" result="hardAlpha"/>
<feMorphology radius="32" operator="dilate" in="SourceAlpha" result="effect1_dropShadow_81_4481"/>
<feOffset dx="7"/>
<feGaussianBlur stdDeviation="24"/>
<feComposite in2="hardAlpha" operator="out"/>
<feColorMatrix type="matrix" values="0 0 0 0 1 0 0 0 0 0.870588 0 0 0 0 0.407843 0 0 0 1 0"/>
<feBlend mode="normal" in2="BackgroundImageFix" result="effect1_dropShadow_81_4481"/>
<feBlend mode="normal" in="SourceGraphic" in2="effect1_dropShadow_81_4481" result="shape"/>
<feGaussianBlur stdDeviation="10" result="effect2_foregroundBlur_81_4481"/>
</filter>
<filter id="filter3_df_81_4481" x="430.055" y="529" width="65" height="65" filterUnits="userSpaceOnUse" color-interpolation-filters="sRGB">
<feFlood flood-opacity="0" result="BackgroundImageFix"/>
<feColorMatrix in="SourceAlpha" type="matrix" values="0 0 0 0 0 0 0 0 0 0 0 0 0 0 0 0 0 0 127 0" result="hardAlpha"/>
<feMorphology radius="16" operator="dilate" in="SourceAlpha" result="effect1_dropShadow_81_4481"/>
<feOffset dx="6"/>
<feGaussianBlur stdDeviation="8"/>
<feComposite in2="hardAlpha" operator="out"/>
<feColorMatrix type="matrix" values="0 0 0 0 1 0 0 0 0 0.870588 0 0 0 0 0.407843 0 0 0 0.4 0"/>
<feBlend mode="normal" in2="BackgroundImageFix" result="effect1_dropShadow_81_4481"/>
<feBlend mode="normal" in="SourceGraphic" in2="effect1_dropShadow_81_4481" result="shape"/>
<feGaussianBlur stdDeviation="10" result="effect2_foregroundBlur_81_4481"/>
</filter>
<filter id="filter4_df_81_4481" x="271.056" y="529" width="65" height="65" filterUnits="userSpaceOnUse" color-interpolation-filters="sRGB">
<feFlood flood-opacity="0" result="BackgroundImageFix"/>
<feColorMatrix in="SourceAlpha" type="matrix" values="0 0 0 0 0 0 0 0 0 0 0 0 0 0 0 0 0 0 127 0" result="hardAlpha"/>
<feMorphology radius="16" operator="dilate" in="SourceAlpha" result="effect1_dropShadow_81_4481"/>
<feOffset dx="6"/>
<feGaussianBlur stdDeviation="8"/>
<feComposite in2="hardAlpha" operator="out"/>
<feColorMatrix type="matrix" values="0 0 0 0 1 0 0 0 0 0.870588 0 0 0 0 0.407843 0 0 0 0.4 0"/>
<feBlend mode="normal" in2="BackgroundImageFix" result="effect1_dropShadow_81_4481"/>
<feBlend mode="normal" in="SourceGraphic" in2="effect1_dropShadow_81_4481" result="shape"/>
<feGaussianBlur stdDeviation="10" result="effect2_foregroundBlur_81_4481"/>
</filter>
</defs>
</svg>
